<svg xmlns="http://www.w3.org/2000/svg" xmlns:xlink="http://www.w3.org/1999/xlink" width="326" height="47" viewBox="0 0 326 47">
  <defs>
    <linearGradient id="linear-gradient" x1="2.472" y1="1.035" x2="2.361" y2="1.005" gradientUnits="objectBoundingBox">
      <stop offset="0" stop-color="#00a0ff"/>
      <stop offset="0.007" stop-color="#00a1ff"/>
      <stop offset="0.26" stop-color="#00beff"/>
      <stop offset="0.512" stop-color="#00d2ff"/>
      <stop offset="0.76" stop-color="#00dfff"/>
      <stop offset="1" stop-color="#00e3ff"/>
    </linearGradient>
    <linearGradient id="linear-gradient-2" x1="1.95" y1="1.879" x2="1.69" y2="1.879" gradientUnits="objectBoundingBox">
      <stop offset="0" stop-color="#ffe000"/>
      <stop offset="0.409" stop-color="#ffbd00"/>
      <stop offset="0.775" stop-color="orange"/>
      <stop offset="1" stop-color="#ff9c00"/>
    </linearGradient>
    <linearGradient id="linear-gradient-3" x1="1.926" y1="0.946" x2="1.835" y2="0.793" gradientUnits="objectBoundingBox">
      <stop offset="0" stop-color="#ff3a44"/>
      <stop offset="1" stop-color="#c31162"/>
    </linearGradient>
    <linearGradient id="linear-gradient-4" x1="1.856" y1="2.093" x2="1.897" y2="2.025" gradientUnits="objectBoundingBox">
      <stop offset="0" stop-color="#32a071"/>
      <stop offset="0.068" stop-color="#2da771"/>
      <stop offset="0.476" stop-color="#15cf74"/>
      <stop offset="0.801" stop-color="#06e775"/>
      <stop offset="1" stop-color="#00f076"/>
    </linearGradient>
  </defs>
  <g id="android-tablet-mobil" transform="translate(1368 -1837)">
    <g id="Rectangle_2397" data-name="Rectangle 2397" transform="translate(-1368 1837)" stroke="#f3bd0a" stroke-width="1">
      <rect width="326" height="47" rx="7" stroke="none"/>
      <rect x="0.5" y="0.5" width="325" height="46" rx="6.5" fill="none"/>
    </g>
    <g id="Group_26" data-name="Group 26" transform="translate(83.224)">
      <path id="Path_429" data-name="Path 429" d="M1689.735,278.9a3.576,3.576,0,0,1-2.669-1.1,3.762,3.762,0,0,1-1.078-2.7,3.678,3.678,0,0,1,1.078-2.693,3.565,3.565,0,0,1,2.666-1.1,3.613,3.613,0,0,1,2.669,1.1,3.9,3.9,0,0,1,0,5.386A3.546,3.546,0,0,1,1689.735,278.9Zm-31.649,0a3.708,3.708,0,0,1-2.681-1.09,3.8,3.8,0,0,1,2.681-6.505,3.736,3.736,0,0,1,1.5.311,3.028,3.028,0,0,1,1.14.815l.07.085-.794.779-.082-.1a2.257,2.257,0,0,0-1.843-.794,2.547,2.547,0,0,0-1.837.75,2.848,2.848,0,0,0,0,3.9,2.686,2.686,0,0,0,3.724,0,2.029,2.029,0,0,0,.539-1.222h-2.546v-1.1h3.639l.015.1a4.022,4.022,0,0,1,.053.551,3.3,3.3,0,0,1-.908,2.432A3.545,3.545,0,0,1,1658.086,278.9Zm42.08-.155h-1.122l-3.437-5.5.029.99v4.507h-1.122v-7.281h1.281l.035.056,3.232,5.181-.029-.987v-4.249h1.134v7.284Zm-18.865,0h-1.137v-6.189h-1.972v-1.1h5.078v1.1H1681.3v6.189Zm-4.035,0h-1.134v-7.284h1.134Zm-6.373,0h-1.134v-6.189h-1.972v-1.1h5.078v1.1h-1.972Zm-3.824-.012h-4.348v-7.273h4.348v1.1h-3.211v2h2.9v1.084h-2.9v2h3.211Zm20.828-1.691a2.509,2.509,0,0,0,1.837.762,2.446,2.446,0,0,0,1.837-.762,2.887,2.887,0,0,0,0-3.88,2.514,2.514,0,0,0-1.837-.762,2.435,2.435,0,0,0-1.834.762,2.892,2.892,0,0,0-.006,3.88Z" transform="translate(-2973.826 1573.65)" fill="#fff"/>
      <path id="Path_430" data-name="Path 430" d="M1678.5,688.55a5,5,0,1,0,5.013,5A4.921,4.921,0,0,0,1678.5,688.55Zm0,8.017a3.038,3.038,0,1,1,2.819-3.03A2.893,2.893,0,0,1,1678.5,696.567Zm-10.938-8.017a5,5,0,1,0,5.014,5A4.921,4.921,0,0,0,1667.566,688.55Zm0,8.017a3.038,3.038,0,1,1,2.819-3.03A2.893,2.893,0,0,1,1667.566,696.567Zm-13.016-6.49v2.116h5.078a4.459,4.459,0,0,1-1.149,2.664,5.181,5.181,0,0,1-3.918,1.553,5.641,5.641,0,0,1,0-11.281,5.42,5.42,0,0,1,3.824,1.515l1.5-1.5a7.377,7.377,0,0,0-5.312-2.142,7.757,7.757,0,1,0,0,15.512,7.1,7.1,0,0,0,5.418-2.18,7.02,7.02,0,0,0,1.84-4.961,6.533,6.533,0,0,0-.117-1.319h-7.167S1654.55,690.076,1654.55,690.076Zm53.238,1.647a4.645,4.645,0,0,0-4.281-3.185,4.749,4.749,0,0,0-4.712,5,4.886,4.886,0,0,0,4.961,5,4.961,4.961,0,0,0,4.164-2.218l-1.7-1.137a2.843,2.843,0,0,1-2.455,1.383,2.553,2.553,0,0,1-2.429-1.515l6.684-2.769S1707.788,691.723,1707.788,691.723Zm-6.816,1.67a2.744,2.744,0,0,1,2.611-2.913,1.927,1.927,0,0,1,1.855,1.058Zm-5.43,4.844h2.195V683.551h-2.195Zm-3.6-8.577h-.079a3.463,3.463,0,0,0-2.637-1.122,5,5,0,0,0,0,9.989,3.453,3.453,0,0,0,2.637-1.137h.079v.718c0,1.908-1.02,2.936-2.664,2.936a2.771,2.771,0,0,1-2.52-1.776l-1.907.8a4.771,4.771,0,0,0,4.425,2.951c2.573,0,4.753-1.515,4.753-5.21v-8.969h-2.075v.823Zm-2.52,6.906a3.039,3.039,0,0,1,0-6.057,2.81,2.81,0,0,1,2.663,3.042A2.775,2.775,0,0,1,1689.419,696.567Zm28.645-13.016h-5.248v14.686h2.195v-5.561h3.056a4.569,4.569,0,1,0,0-9.125Zm.064,7.073h-3.121v-5.04h3.121a2.52,2.52,0,1,1,0,5.04Zm13.552-2.1a4.133,4.133,0,0,0-3.918,2.245l1.946.809a2.087,2.087,0,0,1,2-1.084,2.12,2.12,0,0,1,2.312,1.893v.155a4.917,4.917,0,0,0-2.286-.563c-2.1,0-4.231,1.149-4.231,3.3a3.394,3.394,0,0,0,3.642,3.238,3.089,3.089,0,0,0,2.792-1.436h.079v1.137h2.116v-5.626C1736.132,689.974,1734.186,688.523,1731.681,688.523Zm-.275,8.043c-.718,0-1.723-.352-1.723-1.254,0-1.137,1.254-1.568,2.324-1.568a3.809,3.809,0,0,1,2,.5A2.642,2.642,0,0,1,1731.405,696.567Zm12.444-7.73-2.52,6.37h-.079l-2.611-6.37h-2.362l3.918,8.9-2.233,4.949h2.286l6.027-13.854Zm-19.755,9.4h2.195V683.551h-2.195Z" transform="translate(-2966.448 1174.013)" fill="#fff" fill-rule="evenodd"/>
      <path id="Path_431" data-name="Path 431" d="M400.636,299.479a2.38,2.38,0,0,0-.536,1.658v25.982a2.265,2.265,0,0,0,.548,1.644l.091.079L415.3,314.285v-.325L400.727,299.4Z" transform="translate(-1756.376 1546.373)" fill-rule="evenodd" fill="url(#linear-gradient)"/>
      <path id="Path_432" data-name="Path 432" d="M923.155,640.551,918.3,635.7v-.34l4.855-4.855.105.064L929,633.829c1.644.926,1.644,2.456,0,3.393l-5.743,3.264Z" transform="translate(-2259.393 1224.975)" fill-rule="evenodd" fill="url(#linear-gradient-2)"/>
      <path id="Path_433" data-name="Path 433" d="M438.009,806.961,433.048,802,418.4,816.648a1.923,1.923,0,0,0,2.441.079l17.168-9.766" transform="translate(-1774.14 1058.5)" fill-rule="evenodd" fill="url(#linear-gradient-3)"/>
      <path id="Path_434" data-name="Path 434" d="M438.009,296.625l-17.168-9.752a1.9,1.9,0,0,0-2.441.079l14.648,14.633Z" transform="translate(-1774.14 1558.914)" fill-rule="evenodd" fill="url(#linear-gradient-4)"/>
      <path id="Path_435" data-name="Path 435" d="M438.292,967.7l-17.051,9.687a1.935,1.935,0,0,1-2.35.012l-.091.091.091.079a1.939,1.939,0,0,0,2.35-.012l17.168-9.752Z" transform="translate(-1774.528 897.655)" fill-rule="evenodd" opacity="0.2"/>
      <path id="Path_436" data-name="Path 436" d="M1089.363,803.526l-5.863,3.329.106.105,5.743-3.264a2.058,2.058,0,0,0,1.228-1.7A2.114,2.114,0,0,1,1089.363,803.526Z" transform="translate(-2419.751 1058.5)" fill-rule="evenodd" opacity="0.12"/>
      <path id="Path_437" data-name="Path 437" d="M403.077,286.874l22.911,13.016a2.159,2.159,0,0,1,1.228,1.527,2.058,2.058,0,0,0-1.228-1.7L403.077,286.7c-1.644-.941-2.977-.155-2.977,1.723v.17C400.1,286.716,401.433,285.945,403.077,286.874Z" transform="translate(-1756.376 1559.083)" fill="#fff" fill-rule="evenodd" opacity="0.25"/>
    </g>
  </g>
</svg>
