<svg xmlns="http://www.w3.org/2000/svg" xmlns:xlink="http://www.w3.org/1999/xlink" width="193" height="60" viewBox="0 0 193 60">
  <defs>
    <linearGradient id="linear-gradient" x1="2.472" y1="1.035" x2="2.361" y2="1.005" gradientUnits="objectBoundingBox">
      <stop offset="0" stop-color="#00a0ff"/>
      <stop offset="0.007" stop-color="#00a1ff"/>
      <stop offset="0.26" stop-color="#00beff"/>
      <stop offset="0.512" stop-color="#00d2ff"/>
      <stop offset="0.76" stop-color="#00dfff"/>
      <stop offset="1" stop-color="#00e3ff"/>
    </linearGradient>
    <linearGradient id="linear-gradient-2" x1="1.95" y1="1.879" x2="1.69" y2="1.879" gradientUnits="objectBoundingBox">
      <stop offset="0" stop-color="#ffe000"/>
      <stop offset="0.409" stop-color="#ffbd00"/>
      <stop offset="0.775" stop-color="orange"/>
      <stop offset="1" stop-color="#ff9c00"/>
    </linearGradient>
    <linearGradient id="linear-gradient-3" x1="1.926" y1="0.946" x2="1.835" y2="0.793" gradientUnits="objectBoundingBox">
      <stop offset="0" stop-color="#ff3a44"/>
      <stop offset="1" stop-color="#c31162"/>
    </linearGradient>
    <linearGradient id="linear-gradient-4" x1="1.856" y1="2.093" x2="1.897" y2="2.025" gradientUnits="objectBoundingBox">
      <stop offset="0" stop-color="#32a071"/>
      <stop offset="0.068" stop-color="#2da771"/>
      <stop offset="0.476" stop-color="#15cf74"/>
      <stop offset="0.801" stop-color="#06e775"/>
      <stop offset="1" stop-color="#00f076"/>
    </linearGradient>
  </defs>
  <g id="android-desktop" transform="translate(1370 -1835)">
    <g id="Path_427" data-name="Path 427" transform="translate(-1368 1837)" fill-rule="evenodd">
      <path d="M 181.9974212646484 57 L 7.002571582794189 57 C 2.58992862701416 57 -1 53.41121292114258 -1 49 L -1 7 C -1 2.588785648345947 2.58992862701416 -1 7.002571582794189 -1 L 181.9974212646484 -1 C 186.4100646972656 -1 190 2.588785648345947 190 7 L 190 49 C 190 51.12723922729492 189.1661376953125 53.1331901550293 187.6520233154297 54.64833450317383 C 186.1365661621094 56.16483306884766 184.1283874511719 57 181.9974212646484 57 Z" stroke="none"/>
      <path d="M 181.9974517822266 56 C 185.8533782958984 56 189 52.84389877319336 189 49 L 189 7 C 189 3.142149925231934 185.8533782958984 0 181.9974517822266 0 L 7.002574920654297 0 C 3.143150091171265 0 0 3.142149925231934 0 7 L 0 49 C 0 52.84389877319336 3.143150091171265 56 7.002574920654297 56 L 181.9974517822266 56 M 181.9974517822266 58 L 7.002574920654297 58 C 2.038549900054932 58 -2 53.96262359619141 -2 49 L -2 7 C -2 2.037374973297119 2.038549900054932 -2 7.002574920654297 -2 L 181.9974517822266 -2 C 186.9614715576172 -2 191 2.037374973297119 191 7 L 191 49 C 191 53.96262359619141 186.9614715576172 58 181.9974517822266 58 Z" stroke="none" fill="#f3bd0a"/>
    </g>
    <path id="Path_429" data-name="Path 429" d="M1696.52,280.353a4.261,4.261,0,0,1-3.181-1.316,4.482,4.482,0,0,1-1.285-3.212,4.383,4.383,0,0,1,1.285-3.208,4.247,4.247,0,0,1,3.177-1.316,4.3,4.3,0,0,1,3.181,1.316,4.649,4.649,0,0,1,0,6.417A4.225,4.225,0,0,1,1696.52,280.353Zm-37.709,0a4.418,4.418,0,0,1-3.195-1.3,4.525,4.525,0,0,1,3.195-7.751,4.451,4.451,0,0,1,1.784.37,3.608,3.608,0,0,1,1.358.971l.084.1-.946.929-.1-.115a2.689,2.689,0,0,0-2.2-.946,3.035,3.035,0,0,0-2.189.894,3.394,3.394,0,0,0,0,4.65,3.2,3.2,0,0,0,4.437,0,2.418,2.418,0,0,0,.642-1.456h-3.034V275.4h4.336l.018.119a4.8,4.8,0,0,1,.063.656,3.931,3.931,0,0,1-1.082,2.9A4.224,4.224,0,0,1,1658.811,280.353Zm50.138-.185h-1.337l-4.1-6.553.035,1.18v5.37h-1.337v-8.676h1.526l.042.066,3.851,6.173-.035-1.177v-5.062h1.351v8.679Zm-22.477,0h-1.355v-7.374h-2.35v-1.306h6.05v1.306h-2.35v7.374Zm-4.808,0h-1.351v-8.679h1.351Zm-7.594,0h-1.351v-7.374h-2.35v-1.306h6.05v1.306h-2.35Zm-4.556-.014h-5.181v-8.665h5.181v1.306h-3.826v2.381h3.453v1.292h-3.453v2.381h3.826Zm24.816-2.014a2.99,2.99,0,0,0,2.189.908,2.914,2.914,0,0,0,2.189-.908,3.44,3.44,0,0,0,0-4.622,3,3,0,0,0-2.189-.908,2.9,2.9,0,0,0-2.186.908,3.445,3.445,0,0,0-.007,4.622Z" transform="translate(-2964.544 1575.172)" fill="#fff"/>
    <path id="Path_430" data-name="Path 430" d="M1684.594,689.612a5.956,5.956,0,1,0,5.974,5.956A5.863,5.863,0,0,0,1684.594,689.612Zm0,9.552a3.619,3.619,0,1,1,3.359-3.61A3.447,3.447,0,0,1,1684.594,699.165Zm-13.033-9.552a5.956,5.956,0,1,0,5.974,5.956A5.863,5.863,0,0,0,1671.561,689.612Zm0,9.552a3.619,3.619,0,1,1,3.359-3.61A3.447,3.447,0,0,1,1671.561,699.165Zm-15.508-7.733v2.521h6.05a5.313,5.313,0,0,1-1.369,3.174,6.174,6.174,0,0,1-4.668,1.85,6.721,6.721,0,0,1,0-13.441,6.459,6.459,0,0,1,4.556,1.8l1.788-1.788a8.79,8.79,0,0,0-6.33-2.552,9.242,9.242,0,1,0,0,18.483,8.46,8.46,0,0,0,6.455-2.6,8.365,8.365,0,0,0,2.192-5.911,7.787,7.787,0,0,0-.14-1.571h-8.54S1656.053,691.431,1656.053,691.431Zm63.433,1.962a5.535,5.535,0,0,0-5.1-3.795,5.658,5.658,0,0,0-5.614,5.956,5.821,5.821,0,0,0,5.911,5.956,5.912,5.912,0,0,0,4.961-2.643l-2.021-1.355a3.387,3.387,0,0,1-2.926,1.648,3.042,3.042,0,0,1-2.894-1.8l7.964-3.3S1719.486,693.393,1719.486,693.393Zm-8.121,1.99a3.269,3.269,0,0,1,3.111-3.47,2.3,2.3,0,0,1,2.21,1.26Zm-6.469,5.771h2.615v-17.5H1704.9Zm-4.294-10.219h-.094a4.125,4.125,0,0,0-3.142-1.337,5.956,5.956,0,0,0,0,11.9,4.114,4.114,0,0,0,3.142-1.355h.094V701c0,2.273-1.215,3.5-3.174,3.5a3.3,3.3,0,0,1-3-2.116l-2.273.95a5.685,5.685,0,0,0,5.272,3.516c3.065,0,5.663-1.8,5.663-6.207V689.955h-2.472v.981Zm-3,8.229a3.621,3.621,0,0,1,0-7.216,3.348,3.348,0,0,1,3.174,3.624A3.307,3.307,0,0,1,1697.6,699.165Zm34.131-15.508h-6.253v17.5h2.615v-6.626h3.641a5.444,5.444,0,1,0,0-10.872Zm.077,8.428h-3.718v-6.005h3.718a3,3,0,1,1,0,6.005Zm16.147-2.5a4.925,4.925,0,0,0-4.668,2.674l2.318.964a2.486,2.486,0,0,1,2.381-1.292,2.525,2.525,0,0,1,2.755,2.255v.185a5.858,5.858,0,0,0-2.723-.67c-2.5,0-5.041,1.369-5.041,3.935,0,2.35,2.053,3.858,4.34,3.858a3.681,3.681,0,0,0,3.327-1.711h.094v1.355h2.521v-6.7C1753.257,691.309,1750.939,689.581,1747.954,689.581Zm-.328,9.584c-.855,0-2.053-.419-2.053-1.494,0-1.355,1.494-1.868,2.769-1.868a4.539,4.539,0,0,1,2.381.59A3.148,3.148,0,0,1,1747.626,699.165Zm14.827-9.21-3,7.59h-.094l-3.111-7.59h-2.814l4.668,10.61-2.66,5.9h2.723l7.182-16.507Zm-23.538,11.2h2.615v-17.5h-2.615Z" transform="translate(-2957.209 1177.845)" fill="#fff" fill-rule="evenodd"/>
    <path id="Path_431" data-name="Path 431" d="M400.739,299.494a2.836,2.836,0,0,0-.639,1.976v30.957a2.7,2.7,0,0,0,.653,1.959l.108.094,17.345-17.345v-.388L400.847,299.4Z" transform="translate(-1754.131 1548.053)" fill-rule="evenodd" fill="url(#linear-gradient)"/>
    <path id="Path_432" data-name="Path 432" d="M924.085,642.475,918.3,636.69v-.4l5.785-5.785.126.077,6.843,3.889c1.959,1.1,1.959,2.926,0,4.043l-6.843,3.889Z" transform="translate(-2254.24 1228.512)" fill-rule="evenodd" fill="url(#linear-gradient-2)"/>
    <path id="Path_433" data-name="Path 433" d="M441.764,807.911,435.853,802,418.4,819.453c.639.684,1.711.761,2.908.094l20.455-11.636" transform="translate(-1771.792 1063)" fill-rule="evenodd" fill="url(#linear-gradient-3)"/>
    <path id="Path_434" data-name="Path 434" d="M441.764,298.568l-20.455-11.619c-1.2-.684-2.273-.59-2.908.094l17.453,17.435Z" transform="translate(-1771.792 1560.521)" fill-rule="evenodd" fill="url(#linear-gradient-4)"/>
    <path id="Path_435" data-name="Path 435" d="M442.024,967.7l-20.316,11.542a2.305,2.305,0,0,1-2.8.014l-.108.108.108.094a2.311,2.311,0,0,0,2.8-.014l20.455-11.619Z" transform="translate(-1772.179 903.085)" fill-rule="evenodd" opacity="0.2"/>
    <path id="Path_436" data-name="Path 436" d="M1090.486,803.819l-6.986,3.966.126.126,6.843-3.889a2.452,2.452,0,0,0,1.463-2.021A2.519,2.519,0,0,1,1090.486,803.819Z" transform="translate(-2413.672 1063)" fill-rule="evenodd" opacity="0.12"/>
    <path id="Path_437" data-name="Path 437" d="M403.647,286.983l27.3,15.508a2.573,2.573,0,0,1,1.463,1.819,2.452,2.452,0,0,0-1.463-2.021l-27.3-15.508c-1.959-1.121-3.547-.185-3.547,2.053v.2C400.1,286.794,401.689,285.876,403.647,286.983Z" transform="translate(-1754.131 1560.69)" fill="#fff" fill-rule="evenodd" opacity="0.25"/>
  </g>
</svg>
