<svg xmlns="http://www.w3.org/2000/svg" xmlns:xlink="http://www.w3.org/1999/xlink" width="95" height="95" viewBox="0 0 95 95">
  <defs>
    <clipPath id="clip-path">
      <rect id="Rectangle_2362" data-name="Rectangle 2362" width="95" height="95" transform="translate(20 350)" fill="#fff" stroke="#707070" stroke-width="1"/>
    </clipPath>
  </defs>
  <g id="Mask_Group_25" data-name="Mask Group 25" transform="translate(-20 -350)" clip-path="url(#clip-path)">
    <g id="Group_43" data-name="Group 43">
      <circle id="Ellipse_12" data-name="Ellipse 12" cx="34.5" cy="34.5" r="34.5" transform="translate(33 363)" fill="#f3bd0a"/>
      <g id="_01_align_center" data-name="01 align center" transform="translate(54.088 385)">
        <path id="Path_421" data-name="Path 421" d="M24,13V11l-21.445.031L6.877,6.707,5.463,5.293.877,9.879a3,3,0,0,0,0,4.242l4.586,4.586,1.414-1.414L2.615,13.031Z" fill="#fff"/>
      </g>
    </g>
    <g id="_01_align_center-2" data-name="01 align center" transform="translate(54.088 385)">
      <path id="Path_421-2" data-name="Path 421" d="M24,13V11l-21.445.031L6.877,6.707,5.463,5.293.877,9.879a3,3,0,0,0,0,4.242l4.586,4.586,1.414-1.414L2.615,13.031Z" fill="#fff"/>
    </g>
  </g>
</svg>
