<?xml version="1.0" encoding="utf-8"?>
<!-- Generator: Adobe Illustrator 24.0.2, SVG Export Plug-In . SVG Version: 6.00 Build 0)  -->
<svg version="1.1" id="Layer_1" xmlns="http://www.w3.org/2000/svg" xmlns:xlink="http://www.w3.org/1999/xlink" x="0px" y="0px"
	 viewBox="0 0 95 95" style="enable-background:new 0 0 95 95;" xml:space="preserve">
<style type="text/css">
	.st0{fill:#F3BD0A;}
	.st1{fill:#FFFFFF;}
</style>
<g id="Mask_Group_25" transform="translate(-20 -350)">
	<g id="Group_43">
		<circle id="Ellipse_12" class="st0" cx="67.5" cy="397.5" r="34.5"/>
		<g id="_01_align_center" transform="translate(54.088 385)">
			<path id="Path_421" class="st1" d="M24.2,13l-4.3,4.3l1.4,1.4l4.6-4.6c1.2-1.2,1.2-3.1,0-4.2l-4.6-4.6l-1.4,1.4l4.3,4.3L2.8,11v2
				L24.2,13z"/>
		</g>
	</g>
	<g id="_01_align_center-2" transform="translate(54.088 385)">
		<path id="Path_421-2" class="st1" d="M24.2,13l-4.3,4.3l1.4,1.4l4.6-4.6c1.2-1.2,1.2-3.1,0-4.2l-4.6-4.6l-1.4,1.4l4.3,4.3L2.8,11
			v2L24.2,13z"/>
	</g>
</g>
</svg>
