<svg xmlns="http://www.w3.org/2000/svg" width="326" height="47" viewBox="0 0 326 47">
  <g id="ios-tablet-mobil" transform="translate(4132 2456)">
    <g id="Rectangle_2398" data-name="Rectangle 2398" transform="translate(-4132 -2456)" stroke="#f3bd0a" stroke-width="1">
      <rect width="326" height="47" rx="7" stroke="none"/>
      <rect x="0.5" y="0.5" width="325" height="46" rx="6.5" fill="none"/>
    </g>
    <g id="Group_13" data-name="Group 13" transform="translate(-4033.252 -2448.695)">
      <g id="Group_12" data-name="Group 12">
        <path id="Path_440" data-name="Path 440" d="M33.162,21.081a6.811,6.811,0,0,1,3.244-5.715,6.976,6.976,0,0,0-5.494-2.97c-2.311-.243-4.553,1.383-5.73,1.383-1.2,0-3.014-1.359-4.968-1.32a7.315,7.315,0,0,0-6.157,3.755c-2.663,4.61-.677,11.383,1.874,15.109,1.276,1.825,2.767,3.862,4.719,3.791,1.909-.079,2.623-1.217,4.927-1.217,2.283,0,2.953,1.217,4.943,1.171,2.049-.033,3.339-1.833,4.571-3.674a15.078,15.078,0,0,0,2.09-4.257A6.584,6.584,0,0,1,33.162,21.081Z" transform="translate(-12.792 -5.14)" fill="#fff"/>
        <path id="Path_441" data-name="Path 441" d="M27.6,11.022a6.7,6.7,0,0,0,1.535-4.8A6.829,6.829,0,0,0,24.716,8.5a6.38,6.38,0,0,0-1.574,4.627A5.641,5.641,0,0,0,27.6,11.022Z" transform="translate(-10.987 -6.217)" fill="#fff"/>
      </g>
    </g>
    <g id="Group_14" data-name="Group 14" transform="translate(-3998.45 -2434.849)">
      <path id="Path_442" data-name="Path 442" d="M55.611,33.833H52.943L51.481,29.24H46.4l-1.392,4.593h-2.6L47.444,18.2h3.109Zm-4.571-6.52L49.719,23.23q-.21-.626-.788-2.946h-.047q-.231,1-.743,2.946l-1.3,4.083Z" transform="translate(-42.41 -17.967)" fill="#fff"/>
      <path id="Path_443" data-name="Path 443" d="M66.279,27.441a6.407,6.407,0,0,1-1.555,4.546,4.545,4.545,0,0,1-3.457,1.485,3.457,3.457,0,0,1-3.2-1.6h-.047v5.94H55.514V25.654q0-1.808-.093-3.712h2.2l.14,1.787h.047a4.457,4.457,0,0,1,7.133-.442A6.212,6.212,0,0,1,66.279,27.441Zm-2.552.092a4.642,4.642,0,0,0-.743-2.714A2.565,2.565,0,0,0,60.8,23.7a2.605,2.605,0,0,0-1.681.615,2.85,2.85,0,0,0-.986,1.613,3.28,3.28,0,0,0-.116.764v1.88a3.012,3.012,0,0,0,.754,2.077,2.5,2.5,0,0,0,1.96.847,2.565,2.565,0,0,0,2.2-1.09A4.8,4.8,0,0,0,63.727,27.533Z" transform="translate(-40.133 -17.352)" fill="#fff"/>
      <path id="Path_444" data-name="Path 444" d="M77.316,27.441a6.4,6.4,0,0,1-1.556,4.546A4.541,4.541,0,0,1,72.3,33.473a3.453,3.453,0,0,1-3.2-1.6h-.047v5.94H66.552V25.654q0-1.808-.093-3.712h2.2l.14,1.787h.047a4.458,4.458,0,0,1,7.135-.442A6.23,6.23,0,0,1,77.316,27.441Zm-2.552.092a4.642,4.642,0,0,0-.744-2.714A2.561,2.561,0,0,0,71.84,23.7a2.608,2.608,0,0,0-1.683.615,2.849,2.849,0,0,0-.985,1.613,3.344,3.344,0,0,0-.116.764v1.88a3.022,3.022,0,0,0,.752,2.077,2.506,2.506,0,0,0,1.962.847,2.565,2.565,0,0,0,2.2-1.09A4.8,4.8,0,0,0,74.764,27.533Z" transform="translate(-38.201 -17.352)" fill="#fff"/>
      <path id="Path_445" data-name="Path 445" d="M89.484,29.482A4.167,4.167,0,0,1,88.1,32.73,6.155,6.155,0,0,1,83.836,34.1a7.456,7.456,0,0,1-4.053-.974l.58-2.088a6.867,6.867,0,0,0,3.621,1A3.424,3.424,0,0,0,86.19,31.4a2.087,2.087,0,0,0,.787-1.708,2.178,2.178,0,0,0-.65-1.6,6.04,6.04,0,0,0-2.157-1.209q-4.107-1.532-4.105-4.484a3.968,3.968,0,0,1,1.439-3.16A5.674,5.674,0,0,1,85.333,18a7.59,7.59,0,0,1,3.549.743l-.626,2.042a6.157,6.157,0,0,0-2.993-.719,3.029,3.029,0,0,0-2.063.65,1.857,1.857,0,0,0-.626,1.416,1.911,1.911,0,0,0,.718,1.531,8.114,8.114,0,0,0,2.275,1.207,7.718,7.718,0,0,1,2.969,1.9A3.972,3.972,0,0,1,89.484,29.482Z" transform="translate(-35.87 -18.001)" fill="#fff"/>
      <path id="Path_446" data-name="Path 446" d="M96.111,24.206H93.349v5.474q0,2.089,1.462,2.088a4.455,4.455,0,0,0,1.113-.116l.069,1.9a5.676,5.676,0,0,1-1.948.277,3.006,3.006,0,0,1-2.321-.9,4.445,4.445,0,0,1-.835-3.04V24.2H89.244v-1.88h1.645V20.26l2.46-.743v2.807h2.761v1.882Z" transform="translate(-34.214 -17.736)" fill="#fff"/>
      <path id="Path_447" data-name="Path 447" d="M107.336,27.487a6.185,6.185,0,0,1-1.485,4.269,5.3,5.3,0,0,1-4.131,1.717,5.042,5.042,0,0,1-3.954-1.646,6,6,0,0,1-1.473-4.152,6.124,6.124,0,0,1,1.519-4.291,5.258,5.258,0,0,1,4.094-1.671,5.149,5.149,0,0,1,3.99,1.647A5.927,5.927,0,0,1,107.336,27.487Zm-2.6.081a5.072,5.072,0,0,0-.672-2.675,2.474,2.474,0,0,0-2.249-1.349,2.512,2.512,0,0,0-2.3,1.349,5.169,5.169,0,0,0-.672,2.722,5.064,5.064,0,0,0,.672,2.674,2.56,2.56,0,0,0,4.524-.023A5.09,5.09,0,0,0,104.737,27.568Z" transform="translate(-32.981 -17.352)" fill="#fff"/>
      <path id="Path_448" data-name="Path 448" d="M113.519,24.146a4.35,4.35,0,0,0-.79-.069,2.367,2.367,0,0,0-2.042,1,3.754,3.754,0,0,0-.626,2.227v5.916h-2.5l.023-7.724q0-1.949-.094-3.55h2.182l.092,2.157h.069a3.856,3.856,0,0,1,1.253-1.786,3.029,3.029,0,0,1,1.811-.6,4.022,4.022,0,0,1,.626.046v2.389Z" transform="translate(-31.022 -17.352)" fill="#fff"/>
      <path id="Path_449" data-name="Path 449" d="M123.648,27.05a5.876,5.876,0,0,1-.092,1.136h-7.515a3.271,3.271,0,0,0,1.09,2.553,3.723,3.723,0,0,0,2.458.788,8.312,8.312,0,0,0,3.041-.533l.392,1.739a9.4,9.4,0,0,1-3.78.7,5.476,5.476,0,0,1-4.12-1.543,5.7,5.7,0,0,1-1.5-4.141,6.46,6.46,0,0,1,1.394-4.245,4.8,4.8,0,0,1,3.942-1.808,4.2,4.2,0,0,1,3.691,1.808A6.1,6.1,0,0,1,123.648,27.05Zm-2.389-.65a3.4,3.4,0,0,0-.486-1.926,2.188,2.188,0,0,0-2-1.045,2.376,2.376,0,0,0-1.994,1.021,3.738,3.738,0,0,0-.741,1.948h5.218Z" transform="translate(-29.947 -17.355)" fill="#fff"/>
    </g>
    <g id="Group_16" data-name="Group 16" transform="translate(-3996.963 -2448.297)">
      <g id="Group_15" data-name="Group 15">
        <path id="Path_450" data-name="Path 450" d="M49.99,10.563a3.857,3.857,0,0,1-1.243,3.123,4.945,4.945,0,0,1-3.27.968,15.162,15.162,0,0,1-1.8-.092V7.006a13.292,13.292,0,0,1,2.121-.16,4.572,4.572,0,0,1,3.043.878A3.547,3.547,0,0,1,49.99,10.563Zm-1.3.034a2.808,2.808,0,0,0-.712-2.063A2.807,2.807,0,0,0,45.9,7.815a5.211,5.211,0,0,0-.992.08V13.64a6.5,6.5,0,0,0,.832.034,2.913,2.913,0,0,0,2.182-.786A3.148,3.148,0,0,0,48.692,10.6Z" transform="translate(-43.676 -6.505)" fill="#fff"/>
        <path id="Path_451" data-name="Path 451" d="M55.717,11.459a3.038,3.038,0,0,1-.73,2.1,2.6,2.6,0,0,1-2.029.844,2.475,2.475,0,0,1-1.943-.81,2.948,2.948,0,0,1-.723-2.04,3.009,3.009,0,0,1,.746-2.108,2.588,2.588,0,0,1,2.012-.82,2.533,2.533,0,0,1,1.961.808A2.924,2.924,0,0,1,55.717,11.459Zm-1.277.04a2.505,2.505,0,0,0-.33-1.315,1.216,1.216,0,0,0-1.1-.663,1.235,1.235,0,0,0-1.129.663,2.539,2.539,0,0,0-.33,1.337,2.505,2.505,0,0,0,.33,1.315,1.243,1.243,0,0,0,1.117.663,1.229,1.229,0,0,0,1.1-.674A2.489,2.489,0,0,0,54.44,11.5Z" transform="translate(-42.518 -6.194)" fill="#fff"/>
        <path id="Path_452" data-name="Path 452" d="M63.96,8.719l-1.733,5.539H61.1l-.718-2.405a18,18,0,0,1-.445-1.79h-.022a13.1,13.1,0,0,1-.445,1.79l-.763,2.405H57.565l-1.63-5.539H57.2l.626,2.633q.227.934.376,1.778h.022q.137-.694.457-1.766l.786-2.644h1l.753,2.587q.273.946.444,1.824H61.7a17.422,17.422,0,0,1,.376-1.824l.672-2.587H63.96Z" transform="translate(-41.531 -6.177)" fill="#fff"/>
        <path id="Path_453" data-name="Path 453" d="M68.921,14.275H67.69V11.1q0-1.466-1.116-1.466a1.111,1.111,0,0,0-.889.4,1.43,1.43,0,0,0-.342.949v3.285H64.111V10.319q0-.73-.045-1.585h1.082l.058.866h.034a1.779,1.779,0,0,1,.638-.669,2.081,2.081,0,0,1,1.116-.311,1.768,1.768,0,0,1,1.289.5,2.438,2.438,0,0,1,.638,1.835Z" transform="translate(-40.108 -6.195)" fill="#fff"/>
        <path id="Path_454" data-name="Path 454" d="M71.271,14.636h-1.23V6.556h1.23Z" transform="translate(-39.062 -6.556)" fill="#fff"/>
        <path id="Path_455" data-name="Path 455" d="M78.066,11.459a3.038,3.038,0,0,1-.73,2.1,2.606,2.606,0,0,1-2.029.844,2.472,2.472,0,0,1-1.943-.81,2.948,2.948,0,0,1-.723-2.04,3.009,3.009,0,0,1,.746-2.108,2.587,2.587,0,0,1,2.01-.82,2.536,2.536,0,0,1,1.962.808A2.925,2.925,0,0,1,78.066,11.459Zm-1.278.04a2.505,2.505,0,0,0-.33-1.315,1.214,1.214,0,0,0-1.1-.663,1.233,1.233,0,0,0-1.129.663,2.539,2.539,0,0,0-.33,1.337,2.505,2.505,0,0,0,.33,1.315,1.243,1.243,0,0,0,1.117.663,1.227,1.227,0,0,0,1.1-.674A2.479,2.479,0,0,0,76.788,11.5Z" transform="translate(-38.607 -6.194)" fill="#fff"/>
        <path id="Path_456" data-name="Path 456" d="M83.007,14.275H81.9l-.092-.638h-.034a1.9,1.9,0,0,1-1.618.764,1.67,1.67,0,0,1-1.264-.5,1.573,1.573,0,0,1-.434-1.128,1.721,1.721,0,0,1,.85-1.55A4.409,4.409,0,0,1,81.7,10.7v-.1q0-1.095-1.15-1.094a2.576,2.576,0,0,0-1.444.41l-.25-.808a3.552,3.552,0,0,1,1.9-.478q2.171,0,2.174,2.291v2.04A8.65,8.65,0,0,0,83.007,14.275Zm-1.278-1.9v-.854q-2.037-.035-2.037,1.116a.834.834,0,0,0,.236.65.861.861,0,0,0,.6.216,1.244,1.244,0,0,0,.753-.256,1.051,1.051,0,0,0,.447-.872Z" transform="translate(-37.589 -6.194)" fill="#fff"/>
        <path id="Path_457" data-name="Path 457" d="M89.073,14.636H87.98l-.058-.889h-.034a1.841,1.841,0,0,1-1.779,1.015,2.085,2.085,0,0,1-1.664-.786,3.063,3.063,0,0,1-.66-2.04A3.211,3.211,0,0,1,84.5,9.759a2.207,2.207,0,0,1,1.71-.776,1.66,1.66,0,0,1,1.56.752H87.8V6.556h1.233v6.588Q89.029,13.953,89.073,14.636ZM87.8,12.3v-.924a1.812,1.812,0,0,0-.034-.388,1.4,1.4,0,0,0-.445-.746,1.21,1.21,0,0,0-.824-.3,1.264,1.264,0,0,0-1.083.548,2.347,2.347,0,0,0-.395,1.4,2.188,2.188,0,0,0,.378,1.334,1.267,1.267,0,0,0,1.076.546,1.186,1.186,0,0,0,.973-.456A1.518,1.518,0,0,0,87.8,12.3Z" transform="translate(-36.657 -6.556)" fill="#fff"/>
        <path id="Path_458" data-name="Path 458" d="M98.056,11.459a3.038,3.038,0,0,1-.73,2.1A2.6,2.6,0,0,1,95.3,14.4a2.479,2.479,0,0,1-1.943-.81,2.948,2.948,0,0,1-.723-2.04,3.009,3.009,0,0,1,.746-2.108,2.589,2.589,0,0,1,2.013-.82,2.531,2.531,0,0,1,1.96.808A2.925,2.925,0,0,1,98.056,11.459Zm-1.276.04a2.505,2.505,0,0,0-.33-1.315,1.218,1.218,0,0,0-1.106-.663,1.238,1.238,0,0,0-1.129.663,2.539,2.539,0,0,0-.33,1.337,2.505,2.505,0,0,0,.33,1.315,1.258,1.258,0,0,0,2.223-.012A2.5,2.5,0,0,0,96.78,11.5Z" transform="translate(-35.109 -6.194)" fill="#fff"/>
        <path id="Path_459" data-name="Path 459" d="M103.606,14.275h-1.23V11.1q0-1.466-1.117-1.466a1.107,1.107,0,0,0-.888.4,1.424,1.424,0,0,0-.342.949v3.285H98.8V10.319q0-.73-.043-1.585h1.081l.058.866h.034a1.8,1.8,0,0,1,.638-.669,2.085,2.085,0,0,1,1.117-.311,1.767,1.767,0,0,1,1.288.5,2.433,2.433,0,0,1,.638,1.835Z" transform="translate(-34.038 -6.195)" fill="#fff"/>
        <path id="Path_460" data-name="Path 460" d="M110.438,9.847h-1.356v2.691c0,.684.241,1.026.718,1.026a2.169,2.169,0,0,0,.549-.058l.032.934a2.767,2.767,0,0,1-.956.137,1.472,1.472,0,0,1-1.139-.444,2.172,2.172,0,0,1-.411-1.493V9.847h-.81V8.924h.81V7.909l1.207-.364V8.923h1.356v.924Z" transform="translate(-32.583 -6.383)" fill="#fff"/>
        <path id="Path_461" data-name="Path 461" d="M116.2,14.636h-1.233V11.487q0-1.489-1.115-1.49a1.175,1.175,0,0,0-1.175.864,1.548,1.548,0,0,0-.058.443v3.331h-1.23V6.556h1.23V9.894h.023a1.861,1.861,0,0,1,1.664-.911,1.716,1.716,0,0,1,1.267.5,2.523,2.523,0,0,1,.626,1.858Z" transform="translate(-31.826 -6.556)" fill="#fff"/>
        <path id="Path_462" data-name="Path 462" d="M121.94,11.245a2.973,2.973,0,0,1-.046.558H118.2a1.615,1.615,0,0,0,.535,1.254,1.834,1.834,0,0,0,1.209.388,4.08,4.08,0,0,0,1.493-.262l.193.855a4.637,4.637,0,0,1-1.859.342,2.685,2.685,0,0,1-2.022-.758,2.792,2.792,0,0,1-.734-2.034A3.17,3.17,0,0,1,117.7,9.5a2.355,2.355,0,0,1,1.936-.888,2.06,2.06,0,0,1,1.811.888A2.957,2.957,0,0,1,121.94,11.245Zm-1.175-.318a1.658,1.658,0,0,0-.239-.946,1.076,1.076,0,0,0-.98-.513,1.169,1.169,0,0,0-.98.5,1.864,1.864,0,0,0-.365.958h2.564Z" transform="translate(-30.841 -6.196)" fill="#fff"/>
      </g>
    </g>
  </g>
</svg>
