<svg xmlns="http://www.w3.org/2000/svg" width="226.666" height="40" viewBox="0 0 226.666 40">
  <g id="h_logitrans" transform="translate(233 -469)">
    <path id="Path_41" data-name="Path 41" d="M-219.667,509h0A13.325,13.325,0,0,1-233,495.667V482.333A13.325,13.325,0,0,1-219.667,469h0Z" transform="translate(0 0)" fill="#f3bd0a"/>
    <path id="Path_42" data-name="Path 42" d="M325,469h0v40h0l20-20Z" transform="translate(-351.334 0)" fill="#f3bd0a"/>
    <path id="Path_43" data-name="Path 43" d="M-156.926,554.4c-2.778,0-4.074-1.445-4.074-4.333V541.1h3.074v8.667c0,1.185.519,1.778,1.63,1.778h9.926V554.4Z" transform="translate(-45.333 -45.396)" fill="#fff"/>
    <path id="Path_44" data-name="Path 44" d="M-113.826,554.333c-2.778,0-4.074-1.444-4.074-4.333v-4.667c0-2.889,1.3-4.333,4.074-4.333h9.3c2.778,0,4.074,1.445,4.074,4.333V550c0,2.889-1.259,4.333-4.074,4.333Zm10.259-8.667c0-1.222-.519-1.815-1.667-1.815H-113.2c-1.148,0-1.667.593-1.667,1.815V549.7c0,1.185.518,1.778,1.667,1.778h7.963c1.148,0,1.667-.593,1.667-1.778Z" transform="translate(-72.47 -45.333)" fill="#fff"/>
    <path id="Path_45" data-name="Path 45" d="M-62.989,554.3c-2.259,0-3.111-1.074-3.111-3.519v-5.444c0-2.889,1.3-4.333,4.074-4.333h12.889v2.815H-61.359c-1.148,0-1.667.593-1.667,1.815v4.741c0,.926.3,1.37,1.148,1.37h10v-4.667H-48.8v7.259l-14.185-.037Z" transform="translate(-105.085 -45.333)" fill="#fff"/>
    <path id="Path_46" data-name="Path 46" d="M-13.8,554.4V541.1h3.074v13.3Z" transform="translate(-138.015 -45.396)" fill="#fff"/>
    <path id="Path_47" data-name="Path 47" d="M5.289,554.4V543.952H-1.6V541.1H15.289v2.815H8.363v10.444H5.289Z" transform="translate(-145.697 -45.396)" fill="#fff"/>
    <path id="Path_48" data-name="Path 48" d="M62.615,554.4a.925.925,0,0,1-.333-.852v-2.482c0-.852-.556-1.185-1.407-1.185h-10V554.4H47.8V541.1H62.059c2.259,0,3.074,1.074,3.074,3v1.7c0,2.185-1.074,2.518-1.889,2.667.815.074,2.074.519,2.074,2.556v2.518a.9.9,0,0,0,.37.852Zm-.519-9.555c0-.778-.3-1.148-1.148-1.148H50.911v3.7h9.926c.778,0,1.259-.3,1.259-1.148Z" transform="translate(-176.8 -45.396)" fill="#fff"/>
    <path id="Path_49" data-name="Path 49" d="M166.2,554.4V545.73c0-1.185-.519-1.815-1.63-1.815h-9.3v10.444H152.2V541.1h13c2.778,0,4.074,1.445,4.074,4.333V554.4Z" transform="translate(-242.534 -45.396)" fill="#fff"/>
    <path id="Path_50" data-name="Path 50" d="M203.5,554.333v-2.555h12.63c.815,0,1.148-.407,1.148-1.185v-.667c0-.741-.3-1.185-1.111-1.185h-9.593c-2.259,0-3.074-1.074-3.074-3.037V544c0-1.926.815-3,3.074-3h13.444v2.556H207.685a1,1,0,0,0-1.148,1.148v.519c0,.741.3,1.185,1.148,1.185h9.556c2.259,0,3.111,1.074,3.111,3.037v1.815c0,1.926-.815,3-3.111,3H203.5Z" transform="translate(-274.834 -45.333)" fill="#fff"/>
    <path id="Path_51" data-name="Path 51" d="M113.137,541.1h-8.963c-2.778,0-4.074,1.445-4.074,4.333V554.4h3.074V548.8H114.1V554.4h3.074v-8.963C117.211,542.544,115.915,541.1,113.137,541.1Zm.963,5.482H103.174v-.852c0-1.185.519-1.815,1.63-1.815h7.667c1.111,0,1.63.593,1.63,1.815Z" transform="translate(-209.73 -45.396)" fill="#fff"/>
    <path id="Path_52" data-name="Path 52" d="M-147.37,482.333v-5.593h-10.556v5.593H-161V469h3.074v5.074h10.556V469h3.074v13.333Z" transform="translate(-45.333 0)" fill="#fff"/>
    <path id="Path_53" data-name="Path 53" d="M-58.2,482.407v-2.63h12.63c.815,0,1.148-.407,1.148-1.185v-.667c0-.741-.3-1.185-1.111-1.185h-9.593c-2.259,0-3.074-1.074-3.074-3.037V472c0-1.926.815-3,3.074-3h13.444v2.556H-54.015a1,1,0,0,0-1.148,1.148v.519c0,.741.3,1.185,1.148,1.185h9.593c2.259,0,3.111,1.074,3.111,3.037v1.815c0,1.926-.815,3.074-3.111,3.074H-58.2Z" transform="translate(-110.059)" fill="#fff"/>
    <path id="Path_54" data-name="Path 54" d="M58.663,482.37V473.63c0-1.185-.519-1.815-1.63-1.815H47.774v10.518H44.7V469h13c2.778,0,4.074,1.444,4.074,4.333v9.037Z" transform="translate(-174.848 0)" fill="#fff"/>
    <path id="Path_55" data-name="Path 55" d="M99.874,482.333c-2.778,0-4.074-1.444-4.074-4.333v-4.667c0-2.889,1.3-4.333,4.074-4.333h9.3c2.778,0,4.074,1.444,4.074,4.333V478c0,2.889-1.259,4.333-4.074,4.333Zm10.259-8.667c0-1.222-.519-1.815-1.667-1.815H100.5c-1.148,0-1.667.593-1.667,1.815V477.7c0,1.185.519,1.778,1.667,1.778h7.963c1.148,0,1.667-.593,1.667-1.778Z" transform="translate(-207.023)" fill="#fff"/>
    <path id="Path_56" data-name="Path 56" d="M150.811,482.3c-2.259,0-3.111-1.074-3.111-3.519v-5.444c0-2.889,1.3-4.333,4.074-4.333h12.889v2.815H152.441c-1.148,0-1.667.593-1.667,1.815v4.741c0,.926.3,1.37,1.148,1.37h10v-4.667H165v7.259l-14.185-.037Z" transform="translate(-239.7)" fill="#fff"/>
    <path id="Path_57" data-name="Path 57" d="M203.774,482.333c-2.778,0-4.074-1.482-4.074-4.37V469h3.074v8.667c0,1.185.519,1.778,1.63,1.778h9.926v2.889Z" transform="translate(-272.441 0)" fill="#fff"/>
    <path id="Path_58" data-name="Path 58" d="M247.311,482.333c-2.741,0-4.111-1.482-4.111-4.37V469h3.111v8.667c0,1.185.519,1.778,1.593,1.778h9.185V469h3.037l.037,13.333Z" transform="translate(-299.83 0)" fill="#fff"/>
    <path id="Path_59" data-name="Path 59" d="M6.037,469H-2.926C-5.7,469-7,470.444-7,473.333v9h3.074V476.7H7v5.63h3.074v-9C10.111,470.444,8.815,469,6.037,469ZM7,474.481H-3.889v-.852c0-1.185.519-1.815,1.63-1.815H5.407c1.111,0,1.63.593,1.63,1.815v.852Z" transform="translate(-142.297 0)" fill="#fff"/>
    <path id="Path_60" data-name="Path 60" d="M-97.063,469h-8.963c-2.778,0-4.074,1.444-4.074,4.333v9h3.074V476.7H-96.1v5.63h3.074v-9C-93.026,470.444-94.285,469-97.063,469Zm.963,5.481h-10.926v-.852c0-1.185.519-1.815,1.63-1.815h7.667c1.111,0,1.63.593,1.63,1.815Z" transform="translate(-77.382 0)" fill="#fff"/>
  </g>
</svg>
